<svg xmlns="http://www.w3.org/2000/svg" width="64" height="64" viewBox="0 0 64 64">
  <circle cx="32" cy="32" r="32" fill="#4299E1" />
  <g fill="white">
    <path d="M44,42H24c-0.6,0-1.1-0.4-1.2-1l-4-18c-0.1-0.3,0-0.7,0.2-1c0.2-0.3,0.6-0.5,0.9-0.5h28c0.4,0,0.7,0.2,0.9,0.5
      c0.2,0.3,0.3,0.6,0.2,1l-4,18C45.1,41.6,44.6,42,44,42z M25.1,40h17.8l3.6-16H21.6L25.1,40z"/>
    <circle cx="26" cy="46" r="3"/>
    <circle cx="42" cy="46" r="3"/>
    <path d="M35,30v-8h-6v2h4v6H35z"/>
    <path d="M42,30l-4-6h-2l4,6H42z"/>
  </g>
</svg> 