<svg xmlns="http://www.w3.org/2000/svg" width="64" height="64" viewBox="0 0 64 64">
  <circle cx="32" cy="32" r="32" fill="#ED8936" />
  <g fill="white">
    <path d="M47,34l-8-14c-0.3-0.6-1-1-1.7-1H26.7c-0.7,0-1.4,0.4-1.7,1l-8,14c-0.3,0.6-0.3,1.4,0,2l8,14
      c0.3,0.6,1,1,1.7,1h10.6c0.7,0,1.4-0.4,1.7-1l8-14C47.3,35.4,47.3,34.6,47,34z M26.7,21h10.6l8,14l-8,14H26.7l-8-14L26.7,21z"/>
    <text x="32" y="40" text-anchor="middle" font-size="22" font-weight="bold">%</text>
    <path d="M25,28l14,14l-2,2L23,30L25,28z"/>
    <circle cx="25" cy="28" r="2.5"/>
    <circle cx="39" cy="42" r="2.5"/>
  </g>
</svg> 